<svg width="36" height="32" viewBox="0 0 36 32" fill="none" xmlns="http://www.w3.org/2000/svg">
<path d="M21 7.66667C21 11.35 23.74 14.3333 27.6667 14.3333C31.5933 14.3333 34.3333 11.35 34.3333 7.66667C34.3333 3.98333 31.5933 1 27.6667 1C23.74 1 21 3.98333 21 7.66667ZM14.3333 7.66667C14.3333 11.35 11.5933 14.3333 7.66667 14.3333C3.74 14.3333 1 11.35 1 7.66667C1 3.98333 3.74 1 7.66667 1C11.5933 1 14.3333 3.98333 14.3333 7.66667Z" stroke="#8A8A8A" stroke-width="2"/>
<path d="M21 7.66666V27.6667C21 28.5507 21.3512 29.3986 21.9763 30.0237C22.6014 30.6488 23.4493 31 24.3333 31C25.2174 31 26.0652 30.6488 26.6904 30.0237C27.3155 29.3986 27.6667 28.5507 27.6667 27.6667V14.3333" stroke="#8A8A8A" stroke-width="2" stroke-linecap="round"/>
<path d="M21.0001 24.3333H27.6667M7.66675 24.3333H14.3334" stroke="#8A8A8A" stroke-width="2"/>
<path d="M14.3334 7.66666V27.6667C14.3334 28.5507 13.9822 29.3986 13.3571 30.0237C12.732 30.6488 11.8841 31 11.0001 31C10.116 31 9.26818 30.6488 8.64306 30.0237C8.01794 29.3986 7.66675 28.5507 7.66675 27.6667V14.3333" stroke="#8A8A8A" stroke-width="2" stroke-linecap="round"/>
<path d="M30.9999 2.66666C30.0127 4.14732 29.4859 5.88708 29.4859 7.66666C29.4859 9.44624 30.0127 11.186 30.9999 12.6667M4.33325 2.66666C5.32045 4.14732 5.84724 5.88708 5.84724 7.66666C5.84724 9.44624 5.32045 11.186 4.33325 12.6667" stroke="#8A8A8A" stroke-width="2"/>
</svg>
