<svg width="23" height="34" viewBox="0 0 23 34" fill="none" xmlns="http://www.w3.org/2000/svg">
<path d="M17 7.35715H6.28571C3.91878 7.35715 2 9.27593 2 11.6429V22.3571C2 24.7241 3.91878 26.6429 6.28571 26.6429H17C19.3669 26.6429 21.2857 24.7241 21.2857 22.3571V11.6429C21.2857 9.27593 19.3669 7.35715 17 7.35715Z" stroke="#8A8A8A" stroke-width="2.14286" stroke-linejoin="round"/>
<path d="M6.28564 7.35714V2.53571C6.28564 2.39363 6.34209 2.25737 6.44255 2.15691C6.54302 2.05644 6.67928 2 6.82136 2H16.4642C16.6063 2 16.7426 2.05644 16.843 2.15691C16.9435 2.25737 16.9999 2.39363 16.9999 2.53571V7.35714M16.9999 26.6429V31.4643C16.9999 31.6064 16.9435 31.7426 16.843 31.8431C16.7426 31.9436 16.6063 32 16.4642 32H6.82136C6.67928 32 6.54302 31.9436 6.44255 31.8431C6.34209 31.7426 6.28564 31.6064 6.28564 31.4643V26.6429" stroke="#8A8A8A" stroke-width="2.14286" stroke-linejoin="round"/>
</svg>
