<svg width="33" height="30" viewBox="0 0 33 30" fill="none" xmlns="http://www.w3.org/2000/svg">
<path d="M30.2537 9.5793H16.3944L9.9438 0.709052C9.68833 0.283621 9.32642 0.0496337 8.85805 0.00709052C8.38969 -0.0354526 7.94262 0.113448 7.51684 0.453793C6.87816 1.13448 6.83558 1.81517 7.3891 2.49586L12.4346 9.5793H3.04611C2.2797 9.5793 1.63038 9.84519 1.09815 10.377C0.565919 10.9088 0.299805 11.5363 0.299805 12.2595V13.6634C0.299805 14.8546 0.853323 15.663 1.96036 16.0884L5.72854 27.6389C5.89886 28.2345 6.23949 28.7769 6.75043 29.2661C7.26137 29.7554 7.83617 30 8.47485 30H24.8249C25.4636 30 26.0384 29.7554 26.5494 29.2661C27.0603 28.7769 27.4009 28.2345 27.5712 27.6389L31.3394 16.216C32.4465 15.7906 33 14.9823 33 13.7911V12.3871C33 11.5788 32.7339 10.9088 32.2016 10.377C31.6694 9.84519 31.0201 9.5793 30.2537 9.5793ZM3.04611 12.2595H14.4784L15.4364 13.5358C15.5216 13.5358 15.5641 13.5784 15.5641 13.6634H3.04611V12.2595ZM24.9527 26.8731V27.0007C24.9527 27.0433 24.9314 27.0858 24.8888 27.1283C24.8462 27.1709 24.8249 27.2134 24.8249 27.256H8.60258C8.51743 27.256 8.47485 27.1709 8.47485 27.0007L4.96213 16.3437H28.3377L24.9527 26.8731ZM17.8634 13.6634C18.1614 13.1529 18.3104 12.6849 18.3104 12.2595H30.2537V13.6634H17.8634ZM9.81607 24.831C9.85865 25.1288 10.029 25.3841 10.327 25.5968C10.6251 25.8095 10.9231 25.9159 11.2212 25.9159H11.4766C11.8172 25.8308 12.094 25.6181 12.3069 25.2777C12.5198 24.9374 12.5624 24.597 12.4346 24.2567L11.0934 18.8324C11.0083 18.4921 10.7954 18.2156 10.4547 18.0028C10.1141 17.7901 9.77349 17.7476 9.43286 17.8752C9.09223 17.9603 8.81548 18.173 8.60258 18.5134C8.38969 18.8537 8.34711 19.1728 8.47485 19.4706L9.81607 24.831ZM21.8232 25.9159H22.0786C22.3767 25.9159 22.6747 25.8095 22.9728 25.5968C23.2708 25.3841 23.4411 25.1288 23.4837 24.831L24.8249 19.3429C24.9101 19.0026 24.8569 18.6623 24.6653 18.3219C24.4737 17.9816 24.2076 17.7901 23.8669 17.7476C22.9728 17.5774 22.4193 17.8965 22.2064 18.7048L20.8652 24.129C20.6097 24.9799 20.929 25.5755 21.8232 25.9159ZM16.6499 25.9159C17.544 25.9159 17.9911 25.4479 17.9911 24.5119V19.0877C17.9911 18.1943 17.544 17.7476 16.6499 17.7476C15.7557 17.7476 15.3087 18.1943 15.3087 19.0877V24.5119C15.3087 25.4479 15.7557 25.9159 16.6499 25.9159Z" fill="#8A8A8A"/>
</svg>
