<svg width="27" height="32" viewBox="0 0 27 32" fill="none" xmlns="http://www.w3.org/2000/svg">
<path d="M23.7419 1H3.41936C2.77777 1 2.1624 1.2549 1.7085 1.7085C1.25487 2.16234 1 2.77777 1 3.41935V28.5806C1 29.2222 1.2549 29.8376 1.7085 30.2915C2.16234 30.7451 2.77777 31 3.41936 31H23.7419C24.3835 31 24.9989 30.7451 25.4528 30.2915C25.9064 29.8377 26.1613 29.2222 26.1613 28.5806V3.41935C26.1613 2.77777 25.9064 2.1624 25.4528 1.7085C24.999 1.25487 24.3835 1 23.7419 1ZM3.41936 30.0323C3.03442 30.0323 2.66501 29.8793 2.39289 29.6071C2.12076 29.335 1.96777 28.9656 1.96777 28.5807V27.1291H11.1613V26.1613H1.96777V25.1936H11.1613V24.2258H1.96777V3.41938C1.96777 3.03445 2.12071 2.66504 2.39289 2.39291C2.66506 2.12078 3.03447 1.9678 3.41936 1.9678H15.0323C15.4172 1.9678 15.7866 2.12073 16.0587 2.39291C16.3309 2.66509 16.4838 3.0345 16.4838 3.41938V28.5807C16.4838 28.9656 16.3309 29.335 16.0587 29.6071C15.7866 29.8793 15.4171 30.0323 15.0323 30.0323H3.41936ZM25.1936 28.5806C25.1936 28.9656 25.0406 29.335 24.7684 29.6071C24.4963 29.8792 24.1269 30.0322 23.742 30.0322H16.9678C17.1903 29.7486 17.3443 29.4175 17.4177 29.0645H22.7742C23.1591 29.0645 23.5285 28.9116 23.8007 28.6394C24.0728 28.3672 24.2258 27.9978 24.2258 27.6129V4.3871C24.2258 4.00216 24.0729 3.63276 23.8007 3.36063C23.5285 3.0885 23.1591 2.93551 22.7742 2.93551H17.4032C17.3341 2.58384 17.1851 2.25267 16.9678 1.96777H23.7419C24.1269 1.96777 24.4963 2.12071 24.7684 2.39288C25.0405 2.66506 25.1935 3.03447 25.1935 3.41935L25.1936 28.5806ZM17.4516 3.90323H22.7742C22.9025 3.90323 23.0256 3.95421 23.1164 4.04493C23.2071 4.13566 23.2581 4.25879 23.2581 4.3871V27.6129C23.2581 27.7412 23.2071 27.8643 23.1164 27.9551C23.0256 28.0458 22.9025 28.0968 22.7742 28.0968H21.3226V27.6129C21.3226 27.228 21.1696 26.8586 20.8975 26.5864C20.6253 26.3143 20.2559 26.1613 19.871 26.1613H17.4516L17.4516 3.90323ZM17.4516 27.129H19.871C19.9993 27.129 20.1224 27.18 20.2131 27.2707C20.3039 27.3615 20.3548 27.4846 20.3548 27.6129V28.0968H17.4516V27.129Z" fill="#8A8A8A" stroke="#8A8A8A" stroke-width="0.4"/>
<path d="M9.22584 2.93549H4.38713C4.0022 2.93549 3.63279 3.08842 3.36066 3.3606C3.08853 3.63278 2.93555 4.00219 2.93555 4.38707V9.22578C2.93555 9.61071 3.08848 9.98012 3.36066 10.2522C3.63284 10.5244 4.00225 10.6774 4.38713 10.6774H9.22584C9.61078 10.6774 9.98018 10.5244 10.2523 10.2522C10.5244 9.98007 10.6774 9.61066 10.6774 9.22578V4.38707C10.6774 4.00214 10.5245 3.63273 10.2523 3.3606C9.98013 3.08847 9.61073 2.93549 9.22584 2.93549ZM9.70971 9.22581C9.70971 9.35412 9.65873 9.47725 9.56801 9.56797C9.47728 9.6587 9.35415 9.70968 9.22584 9.70968H4.38713C4.11992 9.70968 3.90326 9.49301 3.90326 9.22581V4.3871C3.90326 4.11989 4.11992 3.90323 4.38713 3.90323H9.22584C9.35415 3.90323 9.47728 3.95421 9.56801 4.04493C9.65873 4.13566 9.70971 4.25879 9.70971 4.3871V9.22581Z" fill="#8A8A8A" stroke="#8A8A8A" stroke-width="0.4"/>
</svg>
