<svg width="30" height="30" viewBox="0 0 30 30" fill="none" xmlns="http://www.w3.org/2000/svg">
<path d="M10.6787 0H3.53395C1.57498 0 0 1.57498 0 3.53395V10.7171C0 12.676 1.57498 14.251 3.53395 14.251H10.7171C12.676 14.251 14.251 12.676 14.251 10.7171V3.53395C14.2127 1.57477 12.6377 0 10.6788 0H10.6787ZM11.1395 10.6787C11.1395 10.9091 10.9474 11.1395 10.6787 11.1395H3.53395C3.30351 11.1395 3.07308 10.9474 3.07308 10.6787L3.07281 3.53395C3.07281 3.30351 3.26493 3.07308 3.53368 3.07308H10.7168C10.9472 3.07308 11.1777 3.2652 11.1777 3.53395L11.1779 10.6787H11.1395Z" fill="#8A8A8A"/>
<path d="M26.4277 0H19.283C17.324 0 15.749 1.57498 15.749 3.53395V10.7171C15.749 12.676 17.324 14.251 19.283 14.251H26.4661C28.4251 14.251 30 12.676 30 10.7171L30.0003 3.53395C29.9617 1.57477 28.387 0 26.4278 0H26.4277ZM26.8888 10.6787C26.8888 10.9091 26.6967 11.1395 26.428 11.1395H19.2832C19.0528 11.1395 18.8224 10.9474 18.8224 10.6787V3.53395C18.8224 3.30351 19.0145 3.07308 19.2832 3.07308H26.4664C26.6968 3.07308 26.9272 3.2652 26.9272 3.53395L26.9275 10.6787H26.8888Z" fill="#8A8A8A"/>
<path d="M26.4277 15.749H19.283C17.324 15.749 15.749 17.3239 15.749 19.2829V26.466C15.749 28.425 17.324 30 19.283 30H26.4661C28.4251 30 30 28.425 30 26.466L30.0003 19.2829C29.9617 17.3239 28.387 15.749 26.4278 15.749H26.4277ZM26.8888 26.4276C26.8888 26.6581 26.6967 26.8885 26.428 26.8885L19.2832 26.8888C19.0528 26.8888 18.8224 26.6966 18.8224 26.4279V19.2832C18.8224 19.0527 19.0145 18.8223 19.2832 18.8223H26.4664C26.6968 18.8223 26.9272 19.0144 26.9272 19.2832L26.9275 26.4279L26.8888 26.4276Z" fill="#8A8A8A"/>
<path d="M10.6787 15.749H3.53395C1.57498 15.749 0 17.3239 0 19.2829V26.466C0 28.425 1.57498 30 3.53395 30H10.7171C12.676 30 14.251 28.425 14.251 26.466V19.2829C14.2127 17.3239 12.6377 15.749 10.6788 15.749H10.6787ZM11.1395 26.4276C11.1395 26.6581 10.9474 26.8885 10.6787 26.8885L3.53395 26.8888C3.30351 26.8888 3.07308 26.6966 3.07308 26.4279L3.07281 19.2832C3.07281 19.0527 3.26493 18.8223 3.53368 18.8223H10.7168C10.9472 18.8223 11.1777 19.0144 11.1777 19.2832L11.1779 26.4279L11.1395 26.4276Z" fill="#8A8A8A"/>
</svg>
