<svg width="18" height="30" viewBox="0 0 18 30" fill="none" xmlns="http://www.w3.org/2000/svg">
<path d="M16.0714 18.2143H1.07143C0.479272 18.2143 0 17.735 0 17.1429V1.07143C0 0.479271 0.479272 0 1.07143 0H16.0714C16.6636 0 17.1429 0.479271 17.1429 1.07143V17.1429C17.1429 17.735 16.6636 18.2143 16.0714 18.2143ZM2.14286 16.0714H15V2.14286H2.14286V16.0714Z" fill="#8A8A8A"/>
<path d="M6.42864 25.7143H4.28578C3.69363 25.7143 3.21436 25.235 3.21436 24.6429V23.5714C3.21436 22.9793 3.69363 22.5 4.28578 22.5H6.42864C7.0208 22.5 7.50007 22.9793 7.50007 23.5714V24.6429C7.50007 25.235 7.0208 25.7143 6.42864 25.7143Z" fill="#8A8A8A"/>
<path d="M7.49878 12.8571C7.29478 12.8571 7.08862 12.7985 6.90543 12.677C6.41252 12.3484 6.27977 11.684 6.60839 11.1914L7.64082 9.64281H7.49971C7.10415 9.64281 6.74108 9.42517 6.55502 9.07672C6.36871 8.72827 6.38952 8.30566 6.60835 7.97707L8.75121 4.76278C9.07886 4.27107 9.74207 4.13713 10.2369 4.46574C10.7298 4.79435 10.8625 5.45874 10.5339 5.95142L9.50149 7.49997H9.6426C10.0382 7.49997 10.4012 7.7176 10.5873 8.06606C10.7736 8.41451 10.7525 8.83712 10.534 9.16571L8.3911 12.38C8.18494 12.6897 7.84506 12.8571 7.49878 12.8571Z" fill="#8A8A8A"/>
<path d="M5.35707 30C4.76492 30 4.28564 29.5208 4.28564 28.9286V25.7143C4.28564 25.1222 4.76492 24.6429 5.35707 24.6429C5.94923 24.6429 6.4285 25.1222 6.4285 25.7143V28.9286C6.4285 29.5208 5.94923 30 5.35707 30Z" fill="#8A8A8A"/>
<path d="M12.8571 25.7143H10.7143C10.1221 25.7143 9.64282 25.235 9.64282 24.6429V23.5714C9.64282 22.9793 10.1221 22.5 10.7143 22.5H12.8571C13.4493 22.5 13.9285 22.9793 13.9285 23.5714V24.6429C13.9285 25.235 13.4493 25.7143 12.8571 25.7143Z" fill="#8A8A8A"/>
<path d="M11.7858 30C11.1936 30 10.7144 29.5208 10.7144 28.9286V25.7143C10.7144 25.1222 11.1936 24.6429 11.7858 24.6429C12.3779 24.6429 12.8572 25.1222 12.8572 25.7143V28.9286C12.8572 29.5208 12.3779 30 11.7858 30Z" fill="#8A8A8A"/>
<path d="M13.9285 23.5714H3.21425C2.62209 23.5714 2.14282 23.0921 2.14282 22.5V17.1428C2.14282 16.5507 2.62209 16.0714 3.21425 16.0714H13.9285C14.5207 16.0714 15 16.5507 15 17.1428V22.5C15 23.0921 14.5207 23.5714 13.9285 23.5714ZM4.28568 21.4286H12.8571V18.2143H4.28568V21.4286Z" fill="#8A8A8A"/>
</svg>
