<svg width="36" height="30" viewBox="0 0 36 30" fill="none" xmlns="http://www.w3.org/2000/svg">
<path d="M17.8375 30C17.0332 30.003 16.2605 29.6873 15.6883 29.1221L3.11081 16.5446C2.18177 15.613 1.45192 14.5021 0.965674 13.2795C0.479424 12.057 0.246926 10.7483 0.28232 9.43306C0.317714 8.11782 0.62026 6.82353 1.17156 5.62889C1.72286 4.43425 2.51139 3.36422 3.4892 2.48389C4.43149 1.6427 5.53368 1.00006 6.7299 0.594386C7.92613 0.188709 9.19185 0.0283122 10.4515 0.122777C12.9697 0.289622 15.3416 1.36532 17.1262 3.14985L17.8375 3.86121L18.8516 2.83201C19.7832 1.90296 20.8941 1.17312 22.1167 0.686866C23.3392 0.200615 24.6479 -0.0318826 25.9632 0.00351126C27.2784 0.0389051 28.5727 0.341451 29.7673 0.89275C30.962 1.44405 32.032 2.23258 32.9123 3.21039C33.7535 4.15268 34.3962 5.25487 34.8018 6.45109C35.2075 7.64732 35.3679 8.91304 35.2734 10.1727C35.1066 12.6909 34.0309 15.0628 32.2464 16.8473L19.9716 29.1221C19.6915 29.4022 19.3587 29.624 18.9924 29.7747C18.6261 29.9254 18.2336 30.0019 17.8375 30ZM9.81578 3.74013C8.38574 3.72048 6.99942 4.23293 5.92599 5.17799C5.3124 5.72711 4.81728 6.39564 4.4709 7.14267C4.12453 7.88971 3.93419 8.69955 3.91152 9.52266C3.88886 10.3458 4.03434 11.1649 4.33907 11.9298C4.64381 12.6948 5.10138 13.3896 5.68382 13.9716L17.8375 26.1253L29.6734 14.2895C32.0799 11.8678 32.322 7.99316 30.2182 5.64718C29.6691 5.03359 29.0006 4.53847 28.2535 4.1921C27.5065 3.84572 26.6967 3.65538 25.8736 3.63272C25.0504 3.61005 24.2313 3.75553 23.4664 4.06026C22.7014 4.365 22.0067 4.82258 21.4246 5.40502L19.124 7.70559C18.9553 7.87491 18.7548 8.00926 18.534 8.10093C18.3132 8.1926 18.0766 8.23979 17.8375 8.23979C17.5985 8.23979 17.3618 8.1926 17.141 8.10093C16.9202 8.00926 16.7197 7.87491 16.551 7.70559L14.5531 5.72286C13.933 5.09661 13.1953 4.59906 12.3823 4.2588C11.5693 3.91854 10.6971 3.74227 9.81578 3.74013Z" fill="#8A8A8A"/>
</svg>
