<svg width="20" height="30" viewBox="0 0 20 30" fill="none" xmlns="http://www.w3.org/2000/svg">
<path d="M6.81818 25.9091H12.2727V24.5455H6.81818V25.9091ZM2.72727 30C1.97727 30 1.33545 29.7332 0.801818 29.1995C0.267273 28.665 0 28.0227 0 27.2727V2.72727C0 1.97727 0.267273 1.335 0.801818 0.800455C1.33545 0.266818 1.97727 0 2.72727 0H16.3636C17.1136 0 17.7559 0.266818 18.2905 0.800455C18.8241 1.335 19.0909 1.97727 19.0909 2.72727V27.2727C19.0909 28.0227 18.8241 28.665 18.2905 29.1995C17.7559 29.7332 17.1136 30 16.3636 30H2.72727ZM2.72727 23.1818V27.2727H16.3636V23.1818H2.72727ZM2.72727 20.4545H16.3636V6.81818H2.72727V20.4545ZM2.72727 4.09091H16.3636V2.72727H2.72727V4.09091Z" fill="#8A8A8A"/>
</svg>
