<svg width="30" height="30" viewBox="0 0 30 30" fill="none" xmlns="http://www.w3.org/2000/svg">
<path d="M21.3817 30C9.59289 30 0 20.4071 0 8.61826C0.00058756 6.50988 0.769593 4.47398 2.16305 2.89171C3.55651 1.30945 5.47889 0.289289 7.57029 0.0222268C8.19164 -0.0554804 8.82136 0.0717984 9.36375 0.384717C9.90615 0.697636 10.3315 1.17908 10.5753 1.75588L13.4792 8.51713C13.6709 8.95555 13.7502 9.43489 13.7098 9.9117C13.6695 10.3885 13.5107 10.8477 13.248 11.2476L11.0232 14.6283C12.0088 16.4909 13.5348 18.0118 15.4006 18.9913L18.7379 16.7664C19.1393 16.5013 19.6003 16.3401 20.0794 16.2973C20.5585 16.2544 21.0408 16.3312 21.4829 16.5208L28.2441 19.4247C28.8209 19.6685 29.3024 20.0939 29.6153 20.6362C29.9282 21.1786 30.0555 21.8084 29.9778 22.4297C29.7107 24.5211 28.6906 26.4435 27.1083 27.837C25.526 29.2304 23.4901 29.9994 21.3817 30ZM7.57029 3.53288C6.40814 3.78388 5.36707 4.42548 4.6205 5.3508C3.87393 6.27613 3.46693 7.42932 3.46731 8.61826C3.47113 13.3683 5.35977 17.9227 8.71855 21.2815C12.0773 24.6402 16.6317 26.5289 21.3817 26.5327C22.5707 26.5331 23.7239 26.1261 24.6492 25.3795C25.5745 24.6329 26.2161 23.5919 26.4671 22.4297L20.3993 19.8292L17.0476 22.0685C16.6307 22.3444 16.1497 22.5079 15.6511 22.5433C15.1525 22.5788 14.6532 22.4849 14.2015 22.2708C11.3973 20.9127 9.12877 18.6544 7.7581 15.8563C7.53768 15.4069 7.43902 14.9076 7.47198 14.4082C7.50493 13.9087 7.66835 13.4267 7.94592 13.0102L10.1708 9.60067L7.57029 3.53288Z" fill="#8A8A8A"/>
</svg>
