<svg width="25" height="26" viewBox="0 0 25 26" fill="none" xmlns="http://www.w3.org/2000/svg">
<path d="M21.875 10.9082H14.8438V3.87695C14.8438 3.01416 14.144 2.31445 13.2812 2.31445H11.7188C10.856 2.31445 10.1562 3.01416 10.1562 3.87695V10.9082H3.125C2.26221 10.9082 1.5625 11.6079 1.5625 12.4707V14.0332C1.5625 14.896 2.26221 15.5957 3.125 15.5957H10.1562V22.627C10.1562 23.4897 10.856 24.1895 11.7188 24.1895H13.2812C14.144 24.1895 14.8438 23.4897 14.8438 22.627V15.5957H21.875C22.7378 15.5957 23.4375 14.896 23.4375 14.0332V12.4707C23.4375 11.6079 22.7378 10.9082 21.875 10.9082Z" fill="black"/>
</svg>
