<svg width="31" height="30" viewBox="0 0 31 30" fill="none" xmlns="http://www.w3.org/2000/svg">
<path d="M27.1408 29.5306L17.5818 19.9715C16.7283 20.6543 15.7468 21.1949 14.6373 21.5932C13.5277 21.9915 12.3471 22.1906 11.0953 22.1906C7.99431 22.1906 5.37013 21.1169 3.22276 18.9696C1.07425 16.8211 0 14.1963 0 11.0953C0 7.99431 1.07425 5.36956 3.22276 3.22105C5.37013 1.07368 7.99431 0 11.0953 0C14.1963 0 16.8211 1.07368 18.9696 3.22105C21.1169 5.36956 22.1906 7.99431 22.1906 11.0953C22.1906 12.3471 21.9915 13.5277 21.5932 14.6373C21.1949 15.7468 20.6543 16.7283 19.9715 17.5818L29.5733 27.1835C29.8862 27.4964 30.0427 27.8805 30.0427 28.3357C30.0427 28.7909 29.872 29.1892 29.5306 29.5306C29.2176 29.8435 28.8193 30 28.3357 30C27.8521 30 27.4538 29.8435 27.1408 29.5306ZM11.0953 18.7767C13.229 18.7767 15.043 18.0302 16.5371 16.5371C18.0302 15.043 18.7767 13.229 18.7767 11.0953C18.7767 8.96159 18.0302 7.14765 16.5371 5.65348C15.043 4.16045 13.229 3.41394 11.0953 3.41394C8.96159 3.41394 7.14765 4.16045 5.65348 5.65348C4.16045 7.14765 3.41394 8.96159 3.41394 11.0953C3.41394 13.229 4.16045 15.043 5.65348 16.5371C7.14765 18.0302 8.96159 18.7767 11.0953 18.7767Z" fill="#8A8A8A"/>
</svg>
