<svg width="26" height="26" viewBox="0 0 26 26" fill="none" xmlns="http://www.w3.org/2000/svg">
<g clip-path="url(#clip0_201_987)">
<path d="M3.52338 23.3858C3.52338 24.0074 3.77031 24.6035 4.20985 25.043C4.64938 25.4826 5.24553 25.7295 5.86713 25.7295H19.9296C20.5512 25.7295 21.1474 25.4826 21.5869 25.043C22.0264 24.6035 22.2734 24.0074 22.2734 23.3858V6.9795H3.52338V23.3858ZM16.8046 10.8858C16.8046 10.6785 16.8869 10.4798 17.0334 10.3333C17.18 10.1868 17.3787 10.1045 17.5859 10.1045C17.7931 10.1045 17.9918 10.1868 18.1383 10.3333C18.2848 10.4798 18.3671 10.6785 18.3671 10.8858V21.8233C18.3671 22.0305 18.2848 22.2292 18.1383 22.3757C17.9918 22.5222 17.7931 22.6045 17.5859 22.6045C17.3787 22.6045 17.18 22.5222 17.0334 22.3757C16.8869 22.2292 16.8046 22.0305 16.8046 21.8233V10.8858ZM12.1171 10.8858C12.1171 10.6785 12.1994 10.4798 12.3459 10.3333C12.4925 10.1868 12.6912 10.1045 12.8984 10.1045C13.1056 10.1045 13.3043 10.1868 13.4508 10.3333C13.5973 10.4798 13.6796 10.6785 13.6796 10.8858V21.8233C13.6796 22.0305 13.5973 22.2292 13.4508 22.3757C13.3043 22.5222 13.1056 22.6045 12.8984 22.6045C12.6912 22.6045 12.4925 22.5222 12.3459 22.3757C12.1994 22.2292 12.1171 22.0305 12.1171 21.8233V10.8858ZM7.42963 10.8858C7.42963 10.6785 7.51194 10.4798 7.65845 10.3333C7.80496 10.1868 8.00368 10.1045 8.21088 10.1045C8.41808 10.1045 8.61679 10.1868 8.7633 10.3333C8.90982 10.4798 8.99213 10.6785 8.99213 10.8858V21.8233C8.99213 22.0305 8.90982 22.2292 8.7633 22.3757C8.61679 22.5222 8.41808 22.6045 8.21088 22.6045C8.00368 22.6045 7.80496 22.5222 7.65845 22.3757C7.51194 22.2292 7.42963 22.0305 7.42963 21.8233V10.8858ZM23.0546 2.292H17.1953L16.7363 1.37891C16.639 1.18371 16.4893 1.0195 16.3038 0.904773C16.1183 0.790045 15.9045 0.729344 15.6865 0.729501H10.1054C9.88782 0.728664 9.6744 0.789138 9.48959 0.903995C9.30478 1.01885 9.15607 1.18344 9.06049 1.37891L8.6015 2.292H2.74213C2.53493 2.292 2.33621 2.37431 2.1897 2.52082C2.04319 2.66734 1.96088 2.86605 1.96088 3.07325L1.96088 4.63575C1.96088 4.84295 2.04319 5.04166 2.1897 5.18818C2.33621 5.33469 2.53493 5.417 2.74213 5.417H23.0546C23.2618 5.417 23.4605 5.33469 23.6071 5.18818C23.7536 5.04166 23.8359 4.84295 23.8359 4.63575V3.07325C23.8359 2.86605 23.7536 2.66734 23.6071 2.52082C23.4605 2.37431 23.2618 2.292 23.0546 2.292Z" fill="black"/>
</g>
<defs>
<clipPath id="clip0_201_987">
<rect width="25" height="25" fill="white" transform="translate(0.398376 0.729492)"/>
</clipPath>
</defs>
</svg>
